<?xml version="1.0" encoding="UTF-8"?>
<svg width="1440" height="1024" viewBox="0 0 1440 1024" fill="none" xmlns="http://www.w3.org/2000/svg">
    <g opacity="0.3">
        <path d="M1440 0H0V1024H1440V0Z" fill="url(#paint0_linear)"/>
        <g opacity="0.4">
            <path d="M534.5 232.5C534.5 274.199 500.699 308 459 308C417.301 308 383.5 274.199 383.5 232.5C383.5 190.801 417.301 157 459 157C500.699 157 534.5 190.801 534.5 232.5Z" stroke="white"/>
            <path d="M696.5 491.5C696.5 533.199 662.699 567 621 567C579.301 567 545.5 533.199 545.5 491.5C545.5 449.801 579.301 416 621 416C662.699 416 696.5 449.801 696.5 491.5Z" stroke="white"/>
            <path d="M534.5 750.5C534.5 792.199 500.699 826 459 826C417.301 826 383.5 792.199 383.5 750.5C383.5 708.801 417.301 675 459 675C500.699 675 534.5 708.801 534.5 750.5Z" stroke="white"/>
            <path d="M858.5 232.5C858.5 274.199 824.699 308 783 308C741.301 308 707.5 274.199 707.5 232.5C707.5 190.801 741.301 157 783 157C824.699 157 858.5 190.801 858.5 232.5Z" stroke="white"/>
            <path d="M1020.5 491.5C1020.5 533.199 986.699 567 945 567C903.301 567 869.5 533.199 869.5 491.5C869.5 449.801 903.301 416 945 416C986.699 416 1020.5 449.801 1020.5 491.5Z" stroke="white"/>
            <path d="M858.5 750.5C858.5 792.199 824.699 826 783 826C741.301 826 707.5 792.199 707.5 750.5C707.5 708.801 741.301 675 783 675C824.699 675 858.5 708.801 858.5 750.5Z" stroke="white"/>
        </g>
    </g>
    <defs>
        <linearGradient id="paint0_linear" x1="720" y1="0" x2="720" y2="1024" gradientUnits="userSpaceOnUse">
            <stop stop-color="white" stop-opacity="0.1"/>
            <stop offset="1" stop-color="white" stop-opacity="0"/>
        </linearGradient>
    </defs>
</svg>
